<svg width="22" height="22" viewBox="0 0 22 22" fill="none" xmlns="http://www.w3.org/2000/svg">
<path d="M6.95685 4.95915C6.24185 4.24415 6.24185 3.07999 6.95685 2.36499C7.67185 1.64999 8.83602 1.64999 9.55102 2.36499C10.266 3.07999 10.266 4.24415 9.55102 4.95915C8.82685 5.68332 7.67185 5.68332 6.95685 4.95915ZM5.49935 14.6667V7.33332C5.49935 6.82915 5.08685 6.41665 4.58268 6.41665C4.07852 6.41665 3.66602 6.82915 3.66602 7.33332V14.6667C3.66602 17.1967 5.71935 19.25 8.24935 19.25H12.8327C13.3368 19.25 13.7493 18.8375 13.7493 18.3333C13.7493 17.8292 13.3368 17.4167 12.8327 17.4167H8.24935C6.72768 17.4167 5.49935 16.1883 5.49935 14.6667ZM17.6727 17.7375L14.2168 14.2817C13.8777 13.9425 13.4102 13.75 12.9243 13.75H10.541V10.3767C11.5402 11.1925 12.9793 11.935 14.391 12.2283C15.0052 12.3567 15.5827 11.8983 15.5827 11.275C15.5827 10.7892 15.2252 10.395 14.7393 10.3125C13.4377 10.0925 12.0993 9.38665 11.3018 8.50665L10.0185 7.08582C9.84435 6.89332 9.62435 6.73749 9.38601 6.62749C9.12018 6.49915 8.81768 6.41665 8.50602 6.41665H8.47852C7.34185 6.41665 6.41602 7.34249 6.41602 8.47915V13.75C6.41602 15.2717 7.64435 16.5 9.16602 16.5H13.8135L16.3618 19.0483C16.7193 19.4058 17.3152 19.4058 17.6727 19.0483C18.0393 18.6908 18.0393 18.1042 17.6727 17.7375Z" fill="#8DD3BB"/>
</svg>
